<svg width="3256" height="3360" viewBox="0 0 3256 3360" fill="none" xmlns="http://www.w3.org/2000/svg">
<path d="M0.28125 1000.52H319.952C429.075 1000.52 508.675 1026.2 558.743 1077.56C608.811 1127.64 633.847 1205.31 633.847 1310.6V1364.52C633.847 1433.85 622.291 1490.35 599.183 1534C577.359 1577.66 543.335 1609.11 497.119 1628.37V1632.22C602.391 1668.17 655.027 1761.9 655.027 1913.41V2028.96C655.027 2132.96 627.427 2212.57 572.223 2267.78C518.303 2321.7 438.707 2348.67 333.432 2348.67H0.28125V1000.52ZM294.917 1549.41C337.283 1549.41 368.739 1538.5 389.279 1516.67C411.103 1494.84 422.015 1458.25 422.015 1406.89V1331.78C422.015 1282.99 413.027 1247.68 395.055 1225.86C378.367 1204.03 351.407 1193.11 314.174 1193.11H212.111V1549.41H294.917ZM333.432 2156.07C370.663 2156.07 398.267 2146.44 416.239 2127.18C434.211 2106.64 443.199 2071.97 443.199 2023.18V1905.71C443.199 1844.08 432.287 1801.7 410.463 1778.59C389.919 1754.2 355.259 1742 306.472 1742H212.111V2156.07H333.432ZM1200.58 2367.92C1096.59 2367.92 1017 2338.39 961.792 2279.33C906.588 2220.27 878.984 2136.81 878.984 2028.96V1320.23C878.984 1212.38 906.588 1128.92 961.792 1069.86C1017 1010.8 1096.59 981.266 1200.58 981.266C1304.57 981.266 1384.17 1010.8 1439.37 1069.86C1494.57 1128.92 1522.18 1212.38 1522.18 1320.23V2028.96C1522.18 2136.81 1494.57 2220.27 1439.37 2279.33C1384.17 2338.39 1304.57 2367.92 1200.58 2367.92ZM1200.58 2175.33C1273.76 2175.33 1310.35 2131.04 1310.35 2042.44V1306.75C1310.35 1218.15 1273.76 1173.86 1200.58 1173.86C1127.4 1173.86 1090.81 1218.15 1090.81 1306.75V2042.44C1090.81 2131.04 1127.4 2175.33 1200.58 2175.33ZM2935.42 2367.92C2832.72 2367.92 2755.04 2339.03 2702.41 2281.26C2649.77 2222.2 2623.45 2138.1 2623.45 2028.96V1951.93H2823.73V2044.37C2823.73 2131.68 2860.32 2175.33 2933.5 2175.33C2969.44 2175.33 2996.4 2165.06 3014.38 2144.52C3033.63 2122.69 3043.26 2088.02 3043.26 2040.52C3043.26 1984.03 3030.42 1934.59 3004.75 1892.22C2979.07 1848.57 2931.57 1796.57 2862.24 1736.22C2774.94 1659.18 2713.96 1589.85 2679.3 1528.22C2644.63 1465.31 2627.3 1394.69 2627.3 1316.38C2627.3 1209.81 2654.26 1127.64 2708.18 1069.86C2762.1 1010.8 2840.42 981.266 2943.12 981.266C3044.54 981.266 3120.93 1010.8 3172.28 1069.86C3224.92 1127.64 3251.24 1211.09 3251.24 1320.23V1376.08H3050.96V1306.75C3050.96 1260.52 3041.98 1227.14 3024 1206.6C3006.03 1184.77 2979.71 1173.86 2945.05 1173.86C2874.44 1173.86 2839.14 1216.87 2839.14 1302.89C2839.14 1351.68 2851.97 1397.26 2877.65 1439.63C2904.61 1482 2952.75 1533.36 3022.08 1593.71C3110.66 1670.74 3171.64 1740.72 3205.02 1803.63C3238.4 1866.55 3255.09 1940.37 3255.09 2025.11C3255.09 2135.53 3227.49 2220.27 3172.28 2279.33C3118.36 2338.39 3039.41 2367.92 2935.42 2367.92Z" fill="#191818"/>
<path d="M1706.56 2336.75L1839.87 1003.85H2287.16L2439.52 2336.75L2240.52 2356.13L2062.6 1350.64L1902.48 2356.13L1706.56 2336.75Z" fill="black"/>
<path d="M688.579 3094.71C668.272 3080.39 656.945 3063.85 654.589 3045.1C652.411 3026.08 658.928 3005.78 674.137 2984.21L684.871 2968.98L724.468 2996.89L711.586 3015.17C699.419 3032.43 700.572 3046.16 715.039 3056.36C722.146 3061.37 728.905 3063.1 735.325 3061.54C742.173 3059.91 748.907 3054.4 755.526 3045.01C763.4 3033.84 767.752 3022.27 768.578 3010.32C769.582 2998.11 767.438 2981.21 762.141 2959.61C755.619 2932.21 753.221 2910.01 754.958 2892.99C756.869 2875.72 763.285 2859.35 774.201 2843.86C789.05 2822.79 805.831 2810.3 824.545 2806.39C843.436 2802.23 863.031 2807.31 883.338 2821.62C903.391 2835.76 914.379 2852.24 916.303 2871.08C918.655 2889.84 912.231 2910.01 897.022 2931.58L889.237 2942.63L849.64 2914.71L859.302 2901.01C865.744 2891.86 868.621 2884.02 867.93 2877.45C867.417 2870.63 863.735 2864.8 856.883 2859.97C842.919 2850.13 829.948 2853.71 817.96 2870.72C811.158 2880.37 807.348 2891.16 806.518 2903.12C805.946 2915.25 808.306 2932.12 813.603 2953.71C820.384 2981.29 822.689 3003.63 820.519 3020.72C818.354 3037.81 811.366 3054.73 799.555 3071.49C784.168 3093.32 766.9 3106.22 747.758 3110.21C728.867 3114.37 709.14 3109.2 688.579 3094.71Z" fill="#191818"/>
<path d="M1014.48 2894.68L1076.72 2925.41L979.975 3241.33L934.031 3218.64L954.342 3156.45L953.931 3157.29L901.718 3131.51L865.109 3184.61L822.508 3163.57L1014.48 2894.68ZM968.089 3114.92L1018.98 2960.28L1018.14 2959.87L926.742 3094.5L968.089 3114.92Z" fill="#191818"/>
<path d="M1132.23 2947.93L1181.62 2963.24L1138.79 3214.8L1139.68 3215.08L1246.58 2983.37L1291.52 2997.3L1147.85 3294.18L1082.88 3274.05L1132.23 2947.93Z" fill="#191818"/>
<path d="M1336.75 3005.68L1474.9 3026.77L1467.87 3072.82L1380.38 3059.46L1367.38 3144.67L1436.91 3155.28L1429.88 3201.33L1360.35 3190.72L1345.24 3289.73L1432.74 3303.08L1425.71 3349.14L1287.56 3328.06L1336.75 3005.68Z" fill="#191818"/>
<path d="M1611.33 3033.6L1662.55 3032.44L1668.88 3311.89L1753.17 3309.98L1754.23 3356.56L1618.71 3359.62L1611.33 3033.6Z" fill="#191818"/>
<path d="M1778 3023.34L1828.58 3015.16L1880.62 3337.09L1830.04 3345.27L1778 3023.34Z" fill="#191818"/>
<path d="M1879.19 3007.65L1929.12 2994.21L2027.27 3229.74L2028.18 3229.5L1994.79 2976.52L2040.21 2964.28L2077.33 3292.01L2011.66 3309.7L1879.19 3007.65Z" fill="#191818"/>
<path d="M2077.77 2951.36L2206.1 2896.03L2224.54 2938.81L2143.26 2973.85L2177.38 3053L2241.97 3025.15L2260.41 3067.93L2195.82 3095.77L2235.47 3187.75L2316.74 3152.71L2335.19 3195.49L2206.86 3250.82L2077.77 2951.36Z" fill="#191818"/>
<path d="M2476.58 3130.36C2455 3142.67 2435.21 3145.91 2417.23 3140.08C2399.09 3133.98 2383.49 3119.46 2370.41 3096.53L2361.18 3080.34L2403.26 3056.34L2414.34 3075.76C2424.8 3094.11 2437.72 3098.89 2453.09 3090.12C2460.65 3085.81 2465.08 3080.42 2466.4 3073.96C2467.82 3067.06 2465.7 3058.62 2460 3048.64C2453.23 3036.77 2444.61 3027.92 2434.14 3022.1C2423.52 3016 2407.3 3010.77 2385.5 3006.4C2357.93 3000.67 2336.81 2993.42 2322.14 2984.62C2307.31 2975.55 2295.21 2962.79 2285.83 2946.34C2273.06 2923.95 2268.87 2903.45 2273.28 2884.85C2277.54 2865.97 2290.45 2850.38 2312.03 2838.07C2333.34 2825.91 2352.93 2822.97 2370.8 2829.22C2388.78 2835.05 2404.31 2849.43 2417.39 2872.36L2424.08 2884.1L2382 2908.1L2373.69 2893.54C2368.15 2883.82 2362.26 2877.89 2356.03 2875.72C2349.64 2873.29 2342.8 2874.15 2335.52 2878.31C2320.68 2886.77 2318.41 2900.04 2328.72 2918.11C2334.57 2928.37 2342.73 2936.41 2353.2 2942.23C2363.94 2947.9 2380.21 2952.93 2402.01 2957.3C2429.86 2962.86 2451.05 2970.26 2465.6 2979.48C2480.16 2988.7 2492.51 3002.21 2502.67 3020.01C2515.9 3043.22 2520.25 3064.33 2515.73 3083.36C2511.48 3102.23 2498.43 3117.9 2476.58 3130.36Z" fill="#191818"/>
<path d="M859.067 556.615C839.069 571.363 819.8 576.89 801.261 573.198C782.534 569.261 765.338 556.666 749.671 535.42L738.611 520.422L777.602 491.666L790.874 509.661C803.405 526.66 816.796 529.907 831.043 519.4C838.039 514.238 841.815 508.369 842.366 501.787C842.98 494.773 839.878 486.64 833.06 477.393C824.949 466.395 815.355 458.614 804.274 454.053C793.01 449.239 776.296 445.937 754.138 444.141C726.084 441.678 704.256 436.936 688.661 429.913C672.88 422.645 659.371 411.384 648.128 396.136C632.83 375.39 626.283 355.522 628.486 336.53C630.504 317.29 641.513 300.297 661.506 285.55C681.254 270.988 700.362 265.77 718.838 269.895C737.382 273.586 754.485 286.055 770.152 307.302L778.169 318.175L739.179 346.932L729.224 333.433C722.588 324.434 716.05 319.225 709.6 317.806C702.968 316.137 696.277 317.792 689.53 322.769C675.783 332.907 675.084 346.351 687.432 363.096C694.437 372.598 703.481 379.624 714.562 384.189C725.889 388.567 742.637 391.652 764.795 393.449C793.099 395.725 815.016 400.594 830.547 408.049C846.078 415.504 859.923 427.481 872.089 443.979C887.938 465.475 894.731 485.936 892.459 505.36C890.442 524.6 879.31 541.688 859.067 556.615Z" fill="#191818"/>
<path d="M861.031 177.803L923.77 148.11L1111.25 420.157L1064.94 442.081L1028.82 387.532L1029.22 388.376L976.584 413.283L995.463 474.96L952.514 495.286L861.031 177.803ZM1004.81 350.962L915.235 215.027L914.396 215.426L963.129 370.69L1004.81 350.962Z" fill="#191818"/>
<path d="M1019.55 103.99L1068.91 88.584L1176.29 320.069L1177.17 319.792L1133.84 68.32L1178.75 54.3018L1228.76 380.311L1163.83 400.577L1019.55 103.99Z" fill="#191818"/>
<path d="M1232.74 42.7322L1370.24 17.7534L1378.56 63.5899L1291.48 79.4098L1306.89 164.208L1376.09 151.635L1384.42 197.472L1315.21 210.044L1333.11 308.593L1420.2 292.774L1428.52 338.61L1291.02 363.587L1232.74 42.7322Z" fill="#191818"/>
<path d="M1611.65 327.514C1602.34 327.191 1594.45 326.296 1587.98 324.828L1589.59 278.269C1594.52 279.683 1600.08 280.498 1606.29 280.713C1616.53 281.069 1624.22 278.849 1629.36 274.055C1634.51 268.951 1637.26 261.122 1637.63 250.568L1646.3 0.548096L1697.51 2.3247L1688.89 250.949C1687.96 277.642 1681.07 297.292 1668.2 309.898C1655.64 322.515 1636.79 328.386 1611.65 327.514Z" fill="#191818"/>
<path d="M1783.47 6.62256L1921.63 27.6464L1914.62 73.7029L1827.12 60.3881L1814.16 145.593L1883.7 156.175L1876.69 202.231L1807.15 191.649L1792.09 290.671L1879.59 303.986L1872.58 350.043L1734.42 329.02L1783.47 6.62256Z" fill="#191818"/>
<path d="M2050.21 61.166L2116.75 80.9036L2074.95 408.651L2025.82 394.08L2035.3 329.348L2035.03 330.242L1979.21 313.683L1952.13 372.224L1906.58 358.713L2050.21 61.166ZM2041.81 286.089L2065.76 125.061L2064.86 124.796L1997.6 272.975L2041.81 286.089Z" fill="#191818"/>
<path d="M2254.7 128.705L2312.84 156.139L2274.63 353.946L2275.47 354.344L2358.76 177.808L2400.04 197.291L2260.9 492.217L2213.29 469.751L2259.26 228.215L2258.42 227.817L2156.84 443.111L2115.55 423.628L2254.7 128.705Z" fill="#191818"/>
<path d="M2357.91 553.508C2338.1 538.522 2327.33 521.613 2325.6 502.783C2324.06 483.707 2331.26 463.644 2347.18 442.589L2358.42 427.726L2397.06 456.952L2383.57 474.79C2370.83 491.632 2371.52 505.393 2385.64 516.073C2392.57 521.32 2399.27 523.27 2405.74 521.93C2412.64 520.532 2419.55 515.247 2426.49 506.084C2434.73 495.184 2439.47 483.775 2440.69 471.853C2442.11 459.681 2440.53 442.721 2435.96 420.958C2430.36 393.356 2428.71 371.08 2431.02 354.132C2433.51 336.938 2440.47 320.785 2451.9 305.675C2467.44 285.115 2484.64 273.197 2503.47 269.919C2522.49 266.394 2541.91 272.125 2561.72 287.114C2581.29 301.915 2591.71 318.759 2593.01 337.648C2594.73 356.476 2587.63 376.416 2571.71 397.471L2563.56 408.248L2524.92 379.022L2535.04 365.643C2541.78 356.726 2544.92 348.974 2544.45 342.388C2544.16 335.555 2540.68 329.609 2533.99 324.55C2520.37 314.246 2507.28 317.391 2494.73 333.988C2487.61 343.401 2483.44 354.069 2482.21 365.99C2481.23 378.099 2483.02 395.03 2487.6 416.792C2493.44 444.581 2495 466.979 2492.26 483.987C2489.52 500.999 2481.97 517.675 2469.6 534.026C2453.49 555.326 2435.8 567.647 2416.53 570.986C2397.51 574.512 2377.97 568.685 2357.91 553.508Z" fill="#191818"/>
</svg>
