<svg width="106" height="46" viewBox="0 0 106 46" fill="none" xmlns="http://www.w3.org/2000/svg">
<path d="M0 0.627242H10.4108C13.9646 0.627242 16.557 1.46383 18.1875 3.13699C19.8181 4.76846 20.6335 7.29873 20.6335 10.7288V12.4853C20.6335 14.7439 20.2571 16.5845 19.5045 18.0065C18.7938 19.4288 17.6857 20.4534 16.1806 21.0808V21.2063C19.609 22.3774 21.3232 25.4309 21.3232 30.3666V34.1309C21.3232 37.519 20.4244 40.1124 18.6265 41.911C16.8705 43.6676 14.2783 44.5462 10.8498 44.5462H0V0.627242ZM9.59546 18.5085C10.9752 18.5085 11.9996 18.1531 12.6686 17.442C13.3793 16.7308 13.7347 15.5388 13.7347 13.8656V11.4188C13.7347 9.82932 13.442 8.67902 12.8567 7.96819C12.3132 7.25703 11.4352 6.90128 10.2226 6.90128H6.8987V18.5085H9.59546ZM10.8498 38.2718C12.0623 38.2718 12.9613 37.9581 13.5466 37.3307C14.1319 36.6615 14.4246 35.5321 14.4246 33.9426V30.1158C14.4246 28.1081 14.0692 26.7274 13.3585 25.9746C12.6894 25.18 11.5606 24.7826 9.97177 24.7826H6.8987V38.2718H10.8498ZM39.0904 45.1733C35.7037 45.1733 33.1117 44.2113 31.3137 42.2873C29.5159 40.3633 28.6169 37.6444 28.6169 34.1309V11.0425C28.6169 7.52905 29.5159 4.81015 31.3137 2.88614C33.1117 0.962135 35.7037 0 39.0904 0C42.477 0 45.0694 0.962135 46.8671 2.88614C48.6648 4.81015 49.564 7.52905 49.564 11.0425V34.1309C49.564 37.6444 48.6648 40.3633 46.8671 42.2873C45.0694 44.2113 42.477 45.1733 39.0904 45.1733ZM39.0904 38.8993C41.4736 38.8993 42.6653 37.4564 42.6653 34.5701V10.6034C42.6653 7.71702 41.4736 6.27417 39.0904 6.27417C36.7071 6.27417 35.5155 7.71702 35.5155 10.6034V34.5701C35.5155 37.4564 36.7071 38.8993 39.0904 38.8993ZM95.5892 45.1733C92.2446 45.1733 89.7148 44.2321 88.0008 42.3502C86.2864 40.4262 85.4292 37.6864 85.4292 34.1309V31.6215H91.9518V34.6329C91.9518 37.4773 93.1434 38.8993 95.5267 38.8993C96.6972 38.8993 97.5752 38.5647 98.1607 37.8956C98.7877 37.1844 99.1013 36.0549 99.1013 34.5075C99.1013 32.6672 98.6831 31.0566 97.8471 29.6763C97.0108 28.2543 95.4639 26.5603 93.206 24.5943C90.3629 22.0845 88.3769 19.826 87.2481 17.8182C86.119 15.7688 85.5546 13.4682 85.5546 10.9171C85.5546 7.44532 86.4326 4.76845 88.1887 2.88614C89.9447 0.962135 92.4954 0 95.84 0C99.143 0 101.631 0.962135 103.303 2.88614C105.017 4.76845 105.875 7.48702 105.875 11.0425V12.8619H99.3521V10.6034C99.3521 9.09731 99.0596 8.00989 98.474 7.34075C97.8888 6.62959 97.0316 6.27417 95.9029 6.27417C93.6033 6.27417 92.4537 7.67532 92.4537 10.4776C92.4537 12.0671 92.8715 13.5519 93.7078 14.9322C94.5858 16.3125 96.1536 17.9857 98.4115 19.9517C101.296 22.4611 103.282 24.7409 104.369 26.7903C105.456 28.8401 106 31.2449 106 34.0055C106 37.6027 105.101 40.3633 103.303 42.2873C101.547 44.2113 98.9759 45.1733 95.5892 45.1733Z" fill="#191818"/>
<path d="M55.5684 44.1585L59.9099 0.736328H74.4769L79.4388 44.1585L72.9579 44.7898L67.1636 12.0338L61.9489 44.7898L55.5684 44.1585Z" fill="#191818"/>
</svg>
