<svg width="40" height="28" viewBox="0 0 40 28" fill="none" xmlns="http://www.w3.org/2000/svg">
<g id="Payment Method/AmazonPay">
<rect x="0.166667" y="0.502604" width="39.6667" height="26.3333" fill="white"/>
<g id="Vector">
<path d="M22.0132 14.1609C21.9474 14.1574 21.8956 14.1023 21.8947 14.035V10.5248C21.9018 10.4581 21.9577 10.4081 22.0233 10.4098H22.6444C22.701 10.4116 22.7494 10.4517 22.7629 10.5078V11.0446H22.776C22.9632 10.5647 23.2258 10.3359 23.688 10.3359C23.9879 10.3359 24.2807 10.4467 24.4697 10.7493C24.6446 11.0301 24.6446 11.5028 24.6446 11.8423V14.0508C24.6348 14.1152 24.5798 14.1623 24.516 14.1609H23.8427C23.7823 14.1583 23.7325 14.1119 23.7242 14.0508V12.1449C23.7242 12.1151 23.7245 12.0842 23.7247 12.0525C23.728 11.6773 23.7321 11.1996 23.3052 11.1996C23.1333 11.2077 22.9819 11.3174 22.9176 11.4804C22.824 11.6947 22.8115 11.9089 22.8115 12.1461V14.035C22.809 14.1063 22.7509 14.1623 22.6811 14.1609H22.0132Z" fill="#232F3E"/>
<path fill-rule="evenodd" clip-rule="evenodd" d="M19.8536 10.3408C20.8475 10.3408 21.385 11.2123 21.385 12.3198C21.385 13.3905 20.7924 14.2396 19.8536 14.2396C18.8787 14.2396 18.3477 13.3681 18.3477 12.2829C18.3477 11.1978 18.8853 10.3408 19.8536 10.3408ZM19.8602 11.0574C19.3665 11.0574 19.3351 11.7437 19.3351 12.1722L19.3351 12.1864C19.335 12.6205 19.3349 13.5157 19.8536 13.5157C20.3781 13.5157 20.3977 12.7774 20.3977 12.3271C20.3977 12.0318 20.3852 11.6771 20.2975 11.3969C20.2223 11.1548 20.0723 11.0574 19.8602 11.0574Z" fill="#232F3E"/>
<path d="M6.81248 14.1682C6.75041 14.1649 6.70003 14.1157 6.69395 14.0526V10.5423C6.69621 10.472 6.75305 10.4163 6.82197 10.417H7.44602C7.50996 10.4206 7.56102 10.4728 7.56455 10.5381V10.9962H7.577C7.73938 10.5526 8.04578 10.3462 8.45826 10.3462C8.87074 10.3462 9.13921 10.5526 9.32708 10.9962C9.4525 10.6548 9.74845 10.409 10.1013 10.3532C10.4542 10.2974 10.8091 10.4403 11.0297 10.7269C11.2118 10.9796 11.206 11.3316 11.2005 11.6622C11.1996 11.718 11.1986 11.7732 11.1986 11.8272V14.0417C11.198 14.076 11.184 14.1086 11.1598 14.1324C11.1355 14.1561 11.103 14.169 11.0695 14.1682H10.4004C10.3345 14.1647 10.2827 14.1096 10.2818 14.0423V12.1818C10.2818 12.1537 10.2823 12.1176 10.2828 12.0765V12.0762C10.285 11.9015 10.2883 11.6382 10.2629 11.5246C10.2131 11.2885 10.0631 11.222 9.86935 11.222C9.69171 11.2275 9.53439 11.3406 9.46931 11.5095C9.40548 11.6747 9.40602 11.9406 9.40643 12.1376L9.40649 12.1818V14.0417C9.40587 14.0759 9.39197 14.1084 9.36785 14.1321C9.34373 14.1559 9.31137 14.1688 9.27789 14.1682H8.60701C8.54132 14.1644 8.48962 14.1095 8.48848 14.0423V12.1818C8.48848 12.1438 8.48905 12.1041 8.48962 12.0632C8.49497 11.6837 8.50159 11.2135 8.07363 11.2135C7.61072 11.2135 7.61108 11.7483 7.61136 12.1527L7.61137 14.0417C7.61075 14.076 7.59677 14.1086 7.57252 14.1324C7.54827 14.1561 7.51575 14.169 7.48217 14.1682H6.81248Z" fill="#232F3E"/>
<path fill-rule="evenodd" clip-rule="evenodd" d="M5.4897 14.2111C5.54053 14.2404 5.60387 14.2338 5.64794 14.1948L5.65327 14.196C5.78662 14.0744 6.0296 13.8589 6.1665 13.7421C6.21865 13.6967 6.20917 13.6211 6.1665 13.5605C6.15348 13.5422 6.14037 13.5243 6.12733 13.5064C6.01761 13.3562 5.91344 13.2136 5.91344 12.9269V11.8623C5.91344 11.8279 5.91361 11.7937 5.91378 11.7598C5.91581 11.3487 5.91767 10.9725 5.61712 10.6851C5.3611 10.4334 4.93558 10.345 4.60962 10.345C3.97253 10.345 3.26136 10.5877 3.1126 11.3914C3.10643 11.424 3.11359 11.4577 3.13241 11.4846C3.15122 11.5116 3.18005 11.5296 3.21217 11.5343L3.85578 11.6063C3.91863 11.5966 3.96725 11.5449 3.97431 11.4804C4.03002 11.2038 4.25759 11.0701 4.51302 11.0701C4.6517 11.0701 4.80697 11.1215 4.88876 11.2474C4.9727 11.3738 4.97139 11.5415 4.97022 11.6922C4.97009 11.7096 4.96995 11.7268 4.96995 11.7437V11.832C4.9091 11.8391 4.84532 11.8457 4.77963 11.8526C4.42626 11.8894 4.01751 11.932 3.71117 12.0693C3.29632 12.2545 3 12.6315 3 13.1865C3 13.897 3.43856 14.2523 4.00216 14.2523C4.47806 14.2523 4.73823 14.1379 5.10626 13.7554C5.124 13.7818 5.14001 13.8062 5.15511 13.8292C5.24291 13.9629 5.30008 14.05 5.4897 14.2111ZM4.97293 12.5612L4.97291 12.381C4.48872 12.381 3.97727 12.4869 3.97727 13.0691C3.97727 13.3657 4.12721 13.5654 4.38382 13.5654C4.57229 13.5654 4.74119 13.4468 4.84787 13.2543C4.97337 13.0264 4.97317 12.8129 4.97293 12.5612Z" fill="#232F3E"/>
<path fill-rule="evenodd" clip-rule="evenodd" d="M14.9412 13.5581C14.9282 13.5398 14.915 13.5218 14.902 13.5039C14.7923 13.3537 14.6881 13.2112 14.6881 12.9251V11.8599C14.6881 11.8237 14.6883 11.7877 14.6885 11.752L14.6886 11.7509C14.6909 11.3419 14.693 10.9686 14.3918 10.6827C14.1352 10.431 13.7097 10.3426 13.3843 10.3426C12.7472 10.3426 12.0361 10.5847 11.8867 11.389C11.8804 11.4217 11.8875 11.4557 11.9065 11.4828C11.9254 11.51 11.9545 11.5279 11.9869 11.5325L12.6358 11.6039C12.6986 11.5939 12.7471 11.5424 12.7543 11.478C12.8106 11.2014 13.037 11.0676 13.2925 11.0676C13.4305 11.0676 13.5888 11.1197 13.6682 11.2456C13.7527 11.3715 13.7514 11.5393 13.7502 11.69C13.7501 11.7074 13.75 11.7245 13.75 11.7413V11.8278C13.6904 11.8346 13.628 11.841 13.5637 11.8476C13.2093 11.8842 12.7982 11.9266 12.4912 12.0644C12.0716 12.2496 11.7771 12.6267 11.7771 13.1823C11.7771 13.8922 12.2156 14.2475 12.7792 14.2475C13.2533 14.2475 13.5153 14.1331 13.8827 13.7506C13.9002 13.7766 13.916 13.8006 13.9309 13.8232C14.0199 13.9587 14.0763 14.0445 14.2668 14.2063C14.3176 14.2353 14.3807 14.2291 14.425 14.1906C14.5583 14.0695 14.8013 13.8535 14.9382 13.7367C14.9957 13.6949 14.9862 13.6211 14.9412 13.5581ZM13.6255 13.2513C13.5194 13.4431 13.3499 13.5617 13.1621 13.5617C12.9055 13.5617 12.7555 13.362 12.7555 13.0661C12.7555 12.4832 13.267 12.3779 13.7512 12.3779L13.7512 12.5528C13.7513 12.8076 13.7515 13.0221 13.6255 13.2513Z" fill="#232F3E"/>
<path d="M15.5078 11.0301V10.5302C15.5062 10.496 15.5189 10.4627 15.5428 10.4386C15.5666 10.4145 15.5993 10.4018 15.6328 10.4037H17.8333C17.8668 10.4026 17.8992 10.4154 17.9232 10.4393C17.9471 10.4632 17.9605 10.496 17.9601 10.5302V10.9605C17.9601 11.0325 17.9009 11.127 17.7948 11.2758L16.6545 12.9378C17.0777 12.9275 17.5251 12.9922 17.9098 13.2131C17.9808 13.2518 18.026 13.3265 18.0283 13.4086V13.9461C18.0283 14.0199 17.9495 14.1052 17.8659 14.0611C17.136 13.6779 16.2695 13.6795 15.541 14.0653C15.4645 14.107 15.3845 14.0229 15.3845 13.9491V13.4377C15.3775 13.3171 15.406 13.1972 15.4663 13.0933L16.7873 11.1566H15.6352C15.6016 11.1579 15.569 11.1452 15.5449 11.1213C15.5209 11.0974 15.5074 11.0644 15.5078 11.0301Z" fill="#232F3E"/>
<path fill-rule="evenodd" clip-rule="evenodd" d="M27.1384 10.8498C27.3066 10.6983 27.4988 10.5771 27.7068 10.4915C27.9032 10.4115 28.1128 10.3704 28.3243 10.3704C28.5345 10.3664 28.7431 10.4094 28.9353 10.4963C29.1165 10.5811 29.2752 10.709 29.3982 10.8691C29.5321 11.0466 29.6311 11.2488 29.6898 11.4647C29.7608 11.7205 29.7952 11.9855 29.7917 12.2514C29.7949 12.523 29.7582 12.7936 29.6826 13.054C29.6194 13.2749 29.5159 13.4817 29.3774 13.6634C29.2489 13.8286 29.0856 13.9622 28.8998 14.0544C28.7045 14.147 28.491 14.1927 28.2757 14.1881C27.8734 14.1949 27.4839 14.0432 27.1882 13.7645V15.4446C27.1939 15.4841 27.1809 15.524 27.1532 15.5523C27.1256 15.5805 27.0865 15.5938 27.0477 15.588H26.6329C26.5942 15.5938 26.5551 15.5805 26.5274 15.5523C26.4998 15.524 26.4868 15.4841 26.4924 15.4446V10.6204C26.487 10.5809 26.5001 10.5411 26.5277 10.513C26.5553 10.4848 26.5942 10.4714 26.6329 10.477H26.9417C26.982 10.4731 27.022 10.4863 27.0526 10.5133C27.0832 10.5404 27.1015 10.5791 27.1035 10.6204L27.1384 10.8498ZM28.1281 10.943C27.7879 10.9457 27.4577 11.0615 27.1876 11.2728V13.27C27.4871 13.5 27.7959 13.6148 28.1139 13.6144C28.7595 13.6144 29.0823 13.1706 29.0823 12.2829C29.0823 11.3953 28.7642 10.9484 28.1281 10.9424V10.943Z" fill="#232F3E"/>
<path fill-rule="evenodd" clip-rule="evenodd" d="M30.6682 11.1197L30.721 11.1015C31.0548 10.9965 31.4017 10.9415 31.751 10.9381C32.0319 10.9385 32.2285 10.9912 32.3407 11.0961C32.4529 11.201 32.509 11.3826 32.509 11.6408V12.1116C32.2199 12.0359 31.9231 11.9953 31.6247 11.9906C31.2131 11.9902 30.8855 12.0941 30.6421 12.3023C30.3988 12.5105 30.2771 12.7889 30.2771 13.1375C30.2779 13.4623 30.3766 13.7215 30.5734 13.9152C30.7702 14.1089 31.0368 14.2057 31.3735 14.2057C31.5816 14.2048 31.7877 14.1637 31.9809 14.0847C32.1847 14.0034 32.3733 13.8872 32.5386 13.7409L32.5742 13.9775C32.5759 14.0168 32.5934 14.0537 32.6226 14.0794C32.6517 14.1052 32.6899 14.1176 32.7282 14.1137H33.0305C33.0692 14.1192 33.1081 14.1059 33.1357 14.0777C33.1633 14.0495 33.1763 14.0097 33.171 13.9703V11.5216C33.1706 11.1294 33.0651 10.8403 32.8545 10.6543C32.6439 10.4683 32.3164 10.3753 31.8719 10.3753C31.6507 10.3753 31.4299 10.3956 31.2123 10.4358C31.0223 10.4668 30.8364 10.5198 30.6581 10.5938C30.615 10.6087 30.5764 10.6347 30.5461 10.6694C30.5231 10.712 30.5132 10.7608 30.5177 10.8092V11.0011C30.5177 11.0876 30.5497 11.1306 30.609 11.1306C30.6292 11.1303 30.6492 11.1266 30.6682 11.1197ZM32.0266 13.5763C31.8716 13.6354 31.7078 13.6667 31.5424 13.6689C31.3598 13.6693 31.2194 13.6205 31.121 13.5224C31.0226 13.4244 30.9734 13.2846 30.9734 13.103C30.973 12.687 31.2376 12.479 31.767 12.479C31.8924 12.4793 32.0177 12.4878 32.1421 12.5044C32.2661 12.5204 32.3891 12.543 32.5107 12.5722V13.3039C32.3637 13.4191 32.2005 13.5109 32.0266 13.5763Z" fill="#232F3E"/>
<path d="M35.0159 15.4585C35.1818 15.3149 35.3282 15.0782 35.455 14.7486L36.9994 10.7348C37.025 10.6804 37.0416 10.6221 37.0486 10.5623C37.0486 10.5054 37.016 10.4763 36.9503 10.4763H36.5573C36.5034 10.4711 36.4491 10.4836 36.4026 10.5121C36.363 10.5573 36.3344 10.6114 36.3191 10.67L35.3709 13.451L34.3877 10.67C34.3724 10.6114 34.3437 10.5573 34.3041 10.5121C34.2576 10.4836 34.2034 10.4711 34.1494 10.4763H33.728C33.6628 10.4763 33.6303 10.5054 33.6303 10.5623C33.637 10.6221 33.6534 10.6804 33.6789 10.7348L35.0313 14.1488L34.8979 14.5119C34.8185 14.7415 34.7296 14.8993 34.6312 14.9852C34.5127 15.0779 34.3654 15.1237 34.2164 15.1141C34.1531 15.1155 34.0897 15.1106 34.0273 15.0996C33.9926 15.092 33.9573 15.0873 33.9218 15.0857C33.8513 15.0857 33.8163 15.1311 33.8163 15.2219V15.4083C33.8124 15.4596 33.8247 15.511 33.8513 15.5547C33.8805 15.5895 33.92 15.6135 33.9639 15.6231C34.0944 15.6583 34.229 15.6752 34.3639 15.6733C34.6326 15.6738 34.8499 15.6021 35.0159 15.4585Z" fill="#232F3E"/>
<path fill-rule="evenodd" clip-rule="evenodd" d="M16.6083 16.4002C16.7606 16.0135 17.0996 15.1468 16.9384 14.9368H16.9396C16.7791 14.7263 15.8783 14.8368 15.4731 14.8864L15.4722 14.8866C15.3489 14.9017 15.33 14.7921 15.4408 14.7129C16.1603 14.1966 17.339 14.3443 17.4759 14.5186C17.6128 14.6929 17.4386 15.8997 16.7648 16.4759C16.6611 16.5642 16.5621 16.517 16.6083 16.4002ZM11.767 16.9969C13.3339 16.9969 15.1587 16.4916 16.4157 15.5444V15.5462C16.6237 15.3865 16.4453 15.1516 16.2332 15.2436C14.8611 15.8346 13.3883 16.1432 11.8992 16.1515C9.8332 16.1515 7.8348 15.5729 6.21806 14.6124C6.07642 14.5283 5.97093 14.6765 6.08946 14.7849C7.64592 16.219 9.67068 17.0079 11.767 16.9969Z" fill="#FF9900"/>
</g>
<rect x="0.166667" y="0.502604" width="39.6667" height="26.3333" stroke="#CCCCCC" stroke-width="0.333333"/>
</g>
</svg>
