<svg width="40" height="28" viewBox="0 0 40 28" fill="none" xmlns="http://www.w3.org/2000/svg">
<g id="Payment Method/Amex">
<rect x="0.166667" y="0.502604" width="39.6667" height="26.3333" fill="white"/>
<path id="Vector" fill-rule="evenodd" clip-rule="evenodd" d="M7.6458 9.66797L4 17.736H8.36454L8.90561 16.4496H10.1424L10.6835 17.736H15.4876V16.7542L15.9157 17.736H18.4007L18.8288 16.7335V17.736H28.8201L30.035 16.483L31.1726 17.736L36.3043 17.7464L32.647 13.7245L36.3043 9.66797H31.2522L30.0695 10.8978L28.9678 9.66797H18.0986L17.1652 11.7504L16.21 9.66797H11.8546V10.6164L11.3701 9.66797H7.6458ZM22.5657 10.8136H28.3032L30.058 12.7092L31.8694 10.8136H33.6242L30.958 13.7234L33.6242 16.5996H31.7898L30.035 14.682L28.2144 16.5996H22.5657V10.8136ZM23.9826 13.0692V12.0113H27.5626L29.1247 13.7015L27.4934 15.4009H23.9826V14.2471H27.1126V13.0692H23.9826ZM8.49032 10.8136H10.6178L13.0361 16.2846V10.8136H15.3666L17.2344 14.7363L18.9559 10.8136H21.2748V16.603H19.8638L19.8523 12.0665L17.7951 16.603H16.5329L14.4643 12.0665V16.603H11.5615L11.0112 15.3051H8.03807L7.4889 16.6019H5.93362L8.49032 10.8136ZM8.54573 14.1053L9.52526 11.7932L10.5037 14.1053H8.54573Z" fill="#1F72CD"/>
<rect x="0.166667" y="0.502604" width="39.6667" height="26.3333" stroke="#CCCCCC" stroke-width="0.333333"/>
</g>
</svg>
