<svg width="40" height="28" viewBox="0 0 40 28" fill="none" xmlns="http://www.w3.org/2000/svg">
<g id="Payment Method/ApplePay">
<rect x="0.166667" y="0.834635" width="39.6667" height="26.3333" fill="white"/>
<path id="Vector" fill-rule="evenodd" clip-rule="evenodd" d="M9.72544 10.488C10.2488 10.5321 10.7721 10.2231 11.0991 9.83132C11.4208 9.4285 11.6333 8.88774 11.5788 8.33594C11.1155 8.35801 10.5431 8.64495 10.216 9.04776C9.91623 9.3954 9.66003 9.95823 9.72544 10.488ZM15.9507 17.5952V8.99258H19.1396C20.7859 8.99258 21.9361 10.1403 21.9361 11.8178C21.9361 13.4953 20.7641 14.6541 19.096 14.6541H17.2699V17.5952H15.9507ZM11.5733 10.5928C11.1123 10.5659 10.6917 10.7331 10.3519 10.8682C10.1332 10.9551 9.94804 11.0287 9.80717 11.0287C9.64908 11.0287 9.45627 10.9512 9.23979 10.8641C8.95613 10.7501 8.63183 10.6196 8.29174 10.6259C7.51223 10.6369 6.78722 11.0839 6.38929 11.7957C5.57161 13.2194 6.17669 15.3273 6.96711 16.486C7.35414 17.0599 7.81749 17.689 8.42802 17.6669C8.69662 17.6566 8.88983 17.5736 9.08979 17.4877C9.32 17.3889 9.55914 17.2861 9.93255 17.2861C10.293 17.2861 10.5217 17.3862 10.7412 17.4822C10.9499 17.5735 11.1504 17.6612 11.448 17.6559C12.0803 17.6448 12.4782 17.082 12.8653 16.5081C13.2829 15.8922 13.4665 15.2911 13.4943 15.1999C13.4959 15.1946 13.497 15.1911 13.4976 15.1893C13.4969 15.1886 13.4918 15.1862 13.4827 15.182C13.3431 15.1173 12.2759 14.6228 12.2656 13.2966C12.2554 12.1835 13.1121 11.6195 13.247 11.5308C13.2552 11.5254 13.2607 11.5217 13.2632 11.5198C12.7181 10.7032 11.8677 10.6149 11.5733 10.5928ZM24.3456 17.6614C25.1741 17.6614 25.9427 17.2365 26.2916 16.5633H26.3189V17.5952H27.5399V13.3132C27.5399 12.0716 26.5587 11.2715 25.0487 11.2715C23.6478 11.2715 22.6121 12.0827 22.5739 13.1973H23.7623C23.8604 12.6676 24.3456 12.3199 25.0106 12.3199C25.8174 12.3199 26.2698 12.7007 26.2698 13.4015V13.876L24.6236 13.9753C23.0918 14.0691 22.2632 14.7037 22.2632 15.8073C22.2632 16.922 23.119 17.6614 24.3456 17.6614ZM24.6998 16.6405C23.9966 16.6405 23.5496 16.2984 23.5496 15.7742C23.5496 15.2335 23.9802 14.9189 24.8034 14.8693L26.2697 14.7755V15.261C26.2697 16.0667 25.5938 16.6405 24.6998 16.6405ZM31.5901 17.9318C31.0613 19.4382 30.4563 19.9348 29.1698 19.9348C29.0717 19.9348 28.7446 19.9238 28.6683 19.9017V18.8698C28.75 18.8809 28.9517 18.8919 29.0553 18.8919C29.6386 18.8919 29.9657 18.6436 30.1673 17.998L30.2873 17.6172L28.0523 11.3543H29.4314L30.985 16.4364H31.0123L32.5659 11.3543H33.9069L31.5901 17.9318ZM17.2697 10.1183H18.7906C19.9354 10.1183 20.5895 10.7363 20.5895 11.8233C20.5895 12.9104 19.9354 13.5339 18.7852 13.5339H17.2697V10.1183Z" fill="black"/>
<rect x="0.166667" y="0.834635" width="39.6667" height="26.3333" stroke="#CCCCCC" stroke-width="0.333333"/>
</g>
</svg>
