<svg width="40" height="28" viewBox="0 0 40 28" fill="none" xmlns="http://www.w3.org/2000/svg">
<g id="Payment Method/GooglePay">
<rect x="0.166667" y="0.834635" width="39.6667" height="26.3333" fill="white"/>
<g id="Vector">
<path fill-rule="evenodd" clip-rule="evenodd" d="M18.8369 17.3007V13.9374H20.5728C21.2841 13.9374 21.8845 13.699 22.3739 13.2289L22.4914 13.1098C23.3854 12.1365 23.3267 10.6204 22.3739 9.71996C21.8975 9.24327 21.2449 8.98506 20.5728 8.9983H17.7862V17.3007H18.8369ZM18.837 12.9177V10.0179H20.5993C20.9778 10.0179 21.3368 10.1635 21.6044 10.4284C22.1722 10.9845 22.1853 11.9114 21.637 12.4874C21.3694 12.7721 20.9909 12.931 20.5993 12.9177H18.837Z" fill="#3C4043"/>
<path fill-rule="evenodd" clip-rule="evenodd" d="M27.3923 12.0637C26.942 11.6466 26.3286 11.4347 25.552 11.4347C24.5536 11.4347 23.8031 11.8055 23.3071 12.5404L24.2338 13.1296C24.5731 12.6265 25.0365 12.3749 25.6238 12.3749C25.9958 12.3749 26.3547 12.5139 26.6353 12.7655C26.9094 13.0038 27.066 13.3481 27.066 13.7123V13.9572C26.6614 13.7321 26.1524 13.6129 25.5259 13.6129C24.795 13.6129 24.2077 13.7851 23.7705 14.136C23.3332 14.4869 23.1113 14.9503 23.1113 15.5396C23.0983 16.0759 23.3267 16.5857 23.7313 16.9299C24.1424 17.3007 24.6645 17.4861 25.2779 17.4861C26.0023 17.4861 26.5766 17.1617 27.0138 16.5128H27.0595V17.3007H28.0645V13.7983C28.0645 13.0634 27.8426 12.4808 27.3923 12.0637ZM24.5407 16.2546C24.3253 16.0957 24.1948 15.8375 24.1948 15.5594C24.1948 15.2483 24.3384 14.9901 24.619 14.7848C24.9062 14.5796 25.2652 14.4736 25.6894 14.4736C26.2769 14.467 26.7337 14.5994 27.0601 14.8643C27.0601 15.3145 26.8839 15.7051 26.5379 16.0361C26.2246 16.3539 25.8004 16.5327 25.3566 16.5327C25.0629 16.5393 24.7757 16.44 24.5407 16.2546Z" fill="#3C4043"/>
<path d="M30.3225 19.7967L33.8334 11.6201H32.6913L31.0664 15.6985H31.0468L29.3827 11.6201H28.2407L30.5443 16.9366L29.2392 19.7967H30.3225Z" fill="#3C4043"/>
<path d="M15.2096 13.2091C15.2096 12.8847 15.1835 12.5602 15.1313 12.2424H10.7002V14.0764H13.2388C13.1344 14.6656 12.795 15.1953 12.2991 15.5263V16.7181H13.8131C14.7006 15.8905 15.2096 14.6656 15.2096 13.2091Z" fill="#4285F4"/>
<path d="M10.7004 17.8701C11.9664 17.8701 13.0365 17.4463 13.8131 16.7181L12.2991 15.5263C11.8749 15.8176 11.3334 15.9832 10.7004 15.9832C9.47355 15.9832 8.43593 15.1423 8.06396 14.0168H6.50428V15.2483C7.30043 16.8571 8.92537 17.8701 10.7004 17.8701Z" fill="#34A853"/>
<path d="M8.06396 14.0168C7.86815 13.4276 7.86833 12.7854 8.06413 12.1895V10.9647H6.5042C5.83193 12.3087 5.83193 13.8977 6.5042 15.2417L8.06396 14.0168Z" fill="#FBBC04"/>
<path d="M10.7004 10.2231C11.3726 10.2099 12.0186 10.4681 12.5015 10.9382L13.8459 9.5743C12.991 8.76657 11.8685 8.32298 10.7004 8.33623C8.92537 8.33623 7.30036 9.35583 6.5042 10.9647L8.06396 12.1961C8.43593 11.064 9.47355 10.2231 10.7004 10.2231Z" fill="#EA4335"/>
</g>
<rect x="0.166667" y="0.834635" width="39.6667" height="26.3333" stroke="#CCCCCC" stroke-width="0.333333"/>
</g>
</svg>
