<svg width="40" height="28" viewBox="0 0 40 28" fill="none" xmlns="http://www.w3.org/2000/svg">
<g id="Payment Method/Klarna">
<rect x="0.166667" y="0.502604" width="39.6667" height="26.3333" fill="white"/>
<g id="Vector">
<path d="M5.91907 17.1066H4.3335V10.0039H5.91907V17.1066Z" fill="#17120F"/>
<path d="M9.87758 10.0039H8.3264C8.3264 11.311 7.74186 12.5107 6.72271 13.2955L6.10816 13.7687L8.48935 17.1068H10.4472L8.25614 14.0352C9.29471 12.972 9.87758 11.5416 9.87758 10.0039Z" fill="#17120F"/>
<path d="M12.4066 17.1046H10.9092V10.0053H12.4066V17.1046Z" fill="#17120F"/>
<path fill-rule="evenodd" clip-rule="evenodd" d="M16.9307 12.1937V12.5079C16.5266 12.2245 16.039 12.058 15.513 12.058C14.1209 12.058 12.9924 13.2181 12.9924 14.6493C12.9924 16.0804 14.1209 17.2406 15.513 17.2406C16.039 17.2406 16.5266 17.074 16.9307 16.7908V17.1046H18.3609V12.1937H16.9307ZM16.9263 14.6493C16.9263 15.3471 16.3461 15.9128 15.6304 15.9128C14.9147 15.9128 14.3345 15.3471 14.3345 14.6493C14.3345 13.9515 14.9147 13.3859 15.6304 13.3859C16.3461 13.3859 16.9263 13.9515 16.9263 14.6493Z" fill="#17120F"/>
<path fill-rule="evenodd" clip-rule="evenodd" d="M32.0189 12.5079V12.1937H33.449V17.1046H32.0189V16.7908C31.6148 17.074 31.1272 17.2406 30.6011 17.2406C29.2091 17.2406 28.0806 16.0804 28.0806 14.6493C28.0806 13.2181 29.2091 12.058 30.6011 12.058C31.1272 12.058 31.6148 12.2245 32.0189 12.5079ZM30.7185 15.9128C31.4343 15.9128 32.0144 15.3471 32.0144 14.6493C32.0144 13.9515 31.4343 13.3859 30.7185 13.3859C30.0028 13.3859 29.4226 13.9515 29.4226 14.6493C29.4226 15.3471 30.0028 15.9128 30.7185 15.9128Z" fill="#17120F"/>
<path d="M25.5391 12.0616C24.9678 12.0616 24.4272 12.244 24.0657 12.7471V12.194H22.6417V17.1046H24.0832V14.5239C24.0832 13.7771 24.5703 13.4114 25.1568 13.4114C25.7853 13.4114 26.1467 13.7975 26.1467 14.5137V17.1046H27.5751V13.9817C27.5751 12.8388 26.6913 12.0616 25.5391 12.0616Z" fill="#17120F"/>
<path d="M20.5733 12.1938V12.8334C20.86 12.4497 21.3942 12.1941 21.975 12.1941V13.6231C21.9723 13.623 21.9696 13.6229 21.967 13.6228C21.964 13.6226 21.961 13.6224 21.958 13.6224C21.3921 13.6224 20.5766 14.0382 20.5766 14.8118V17.1046H19.109V12.1938H20.5733Z" fill="#17120F"/>
<path d="M34.0697 16.2855C34.0697 15.7759 34.4715 15.3628 34.9672 15.3628C35.4628 15.3628 35.8647 15.7759 35.8647 16.2855C35.8647 16.795 35.4628 17.2081 34.9672 17.2081C34.4715 17.2081 34.0697 16.795 34.0697 16.2855Z" fill="#17120F"/>
</g>
<rect x="0.166667" y="0.502604" width="39.6667" height="26.3333" stroke="#CCCCCC" stroke-width="0.333333"/>
</g>
</svg>
