<svg width="40" height="28" viewBox="0 0 40 28" fill="none" xmlns="http://www.w3.org/2000/svg">
<g id="Payment Method/Maestro">
<rect x="0.166667" y="0.834635" width="39.6667" height="26.3333" fill="white"/>
<g id="Vector">
<path d="M33.3337 13.9083C33.3337 18.4634 29.6484 22.1487 25.0933 22.1487C23.1706 22.1487 21.4081 21.4849 20.0118 20.3861C21.9345 18.8754 23.1477 16.5406 23.1477 13.9083C23.1477 11.276 21.9116 8.94122 20.0118 7.43049C21.4081 6.33178 23.1706 5.66797 25.0933 5.66797C29.6484 5.66797 33.3337 9.37612 33.3337 13.9083Z" fill="#0099DF"/>
<path d="M20.0118 7.43049C20.0118 7.43049 20.0118 7.43049 20.0118 7.43049C21.9116 8.94122 23.1477 11.276 23.1477 13.9083C23.1477 16.5406 21.9345 18.8754 20.0118 20.3861L19.9888 20.3861C18.089 18.8983 16.853 16.5407 16.853 13.9084C16.853 11.276 18.089 8.94127 19.9889 7.43054C19.9888 7.43052 19.9889 7.43055 19.9889 7.43054L20.0118 7.43049Z" fill="#6C6BBD"/>
<path d="M16.853 13.9084C16.853 11.276 18.089 8.94127 19.9889 7.43054C18.5926 6.33182 16.8301 5.668 14.9073 5.668C10.3523 5.668 6.66699 9.35327 6.66699 13.9083C6.66699 18.4634 10.3523 22.1487 14.9073 22.1487C16.8301 22.1487 18.5925 21.4849 19.9888 20.3861C18.089 18.8983 16.853 16.5407 16.853 13.9084Z" fill="#EB001B"/>
</g>
<rect x="0.166667" y="0.834635" width="39.6667" height="26.3333" stroke="#CCCCCC" stroke-width="0.333333"/>
</g>
</svg>
