<svg width="40" height="28" viewBox="0 0 40 28" fill="none" xmlns="http://www.w3.org/2000/svg">
<g id="Payment Method/PayPal">
<rect x="0.166667" y="0.834635" width="39.6667" height="26.3333" fill="white"/>
<g id="Vector">
<path fill-rule="evenodd" clip-rule="evenodd" d="M10.3564 10.6687H8.39705C8.26296 10.6687 8.14893 10.7661 8.12802 10.8984L7.33555 15.9222C7.3198 16.0214 7.39658 16.1108 7.49715 16.1108H8.43257C8.56665 16.1108 8.68068 16.0133 8.70159 15.8807L8.91533 14.5258C8.93595 14.3931 9.05026 14.2957 9.18407 14.2957H9.80434C11.095 14.2957 11.8399 13.6712 12.0345 12.4337C12.1222 11.8923 12.0382 11.4669 11.7846 11.1688C11.5062 10.8418 11.0122 10.6687 10.3564 10.6687ZM10.5825 12.5036C10.4753 13.2066 9.93814 13.2066 9.41872 13.2066H9.12304L9.33047 11.8936C9.34278 11.8143 9.41154 11.7559 9.49177 11.7559H9.62728C9.98111 11.7559 10.3149 11.7559 10.4874 11.9575C10.5902 12.0779 10.6217 12.2566 10.5825 12.5036ZM16.2135 12.481H15.2752C15.1952 12.481 15.1261 12.5395 15.1138 12.6189L15.0723 12.8812L15.0067 12.7862C14.8036 12.4914 14.3506 12.3929 13.8985 12.3929C12.8616 12.3929 11.9761 13.1781 11.8036 14.2796C11.7139 14.8289 11.8414 15.3543 12.1531 15.7207C12.439 16.0576 12.8482 16.198 13.3349 16.198C14.1703 16.198 14.6337 15.6608 14.6337 15.6608L14.5918 15.9216C14.576 16.0213 14.6528 16.1106 14.7528 16.1106H15.598C15.7324 16.1106 15.8458 16.0132 15.867 15.8806L16.3741 12.6695C16.3902 12.5708 16.3137 12.481 16.2135 12.481ZM14.9055 14.307C14.815 14.843 14.3895 15.2028 13.847 15.2028C13.5745 15.2028 13.3567 15.1154 13.2169 14.9498C13.0782 14.7855 13.0255 14.5513 13.0696 14.2907C13.1542 13.7592 13.5868 13.3878 14.1211 13.3878C14.3875 13.3878 14.6041 13.4762 14.7468 13.6432C14.8897 13.812 14.9465 14.0474 14.9055 14.307ZM20.2678 12.4809H21.2107C21.3427 12.4809 21.4198 12.629 21.3447 12.7373L18.2087 17.2634C18.1579 17.3367 18.0743 17.3804 17.9849 17.3804H17.0432C16.9106 17.3804 16.8332 17.2311 16.9099 17.1225L17.8864 15.7443L16.8479 12.6968C16.8119 12.5909 16.8902 12.4809 17.0029 12.4809H17.9294C18.0497 12.4809 18.1559 12.5599 18.1907 12.6751L18.7418 14.5157L20.0424 12.6003C20.0933 12.5256 20.1779 12.4809 20.2678 12.4809Z" fill="#253B80"/>
<path fill-rule="evenodd" clip-rule="evenodd" d="M30.4913 15.9218L31.2954 10.8061C31.3078 10.7267 31.3766 10.6682 31.4565 10.668H32.3618C32.4618 10.668 32.5385 10.7576 32.5228 10.8567L31.7298 15.8803C31.7091 16.0129 31.5951 16.1103 31.4608 16.1103H30.6523C30.5523 16.1103 30.4755 16.021 30.4913 15.9218ZM24.3329 10.6682H22.3732C22.2394 10.6682 22.1254 10.7657 22.1044 10.898L21.312 15.9218C21.2962 16.021 21.373 16.1103 21.4731 16.1103H22.4786C22.5721 16.1103 22.652 16.0422 22.6666 15.9494L22.8915 14.5253C22.9121 14.3926 23.0264 14.2953 23.1602 14.2953H23.7802C25.0711 14.2953 25.8159 13.6708 26.0106 12.4333C26.0985 11.8918 26.0141 11.4664 25.7606 11.1684C25.4823 10.8414 24.9887 10.6682 24.3329 10.6682ZM24.559 12.5031C24.4521 13.2061 23.9149 13.2061 23.3951 13.2061H23.0997L23.3075 11.8932C23.3198 11.8139 23.388 11.7554 23.4685 11.7554H23.604C23.9576 11.7554 24.2917 11.7554 24.464 11.9571C24.5669 12.0774 24.5982 12.2561 24.559 12.5031ZM30.1894 12.4806H29.2518C29.1712 12.4806 29.1028 12.539 29.0907 12.6185L29.0492 12.8808L28.9833 12.7858C28.7802 12.4909 28.3275 12.3924 27.8754 12.3924C26.8385 12.3924 25.9532 13.1776 25.7807 14.2791C25.6914 14.8285 25.8182 15.3539 26.13 15.7203C26.4165 16.0572 26.8251 16.1976 27.3118 16.1976C28.1472 16.1976 28.6105 15.6604 28.6105 15.6604L28.5687 15.9211C28.5529 16.0208 28.6297 16.1102 28.7303 16.1102H29.5752C29.7089 16.1102 29.823 16.0127 29.8439 15.8802L30.3513 12.6691C30.3668 12.5703 30.29 12.4806 30.1894 12.4806ZM28.8816 14.3066C28.7916 14.8426 28.3656 15.2024 27.8229 15.2024C27.551 15.2024 27.3328 15.115 27.1929 14.9494C27.0542 14.785 27.0021 14.5509 27.0457 14.2903C27.1307 13.7588 27.5628 13.3874 28.0971 13.3874C28.3636 13.3874 28.5801 13.4758 28.7229 13.6428C28.8664 13.8116 28.9231 14.047 28.8816 14.3066Z" fill="#179BD7"/>
</g>
<rect x="0.166667" y="0.834635" width="39.6667" height="26.3333" stroke="#CCCCCC" stroke-width="0.333333"/>
</g>
</svg>
