<svg width="40" height="28" viewBox="0 0 40 28" fill="none" xmlns="http://www.w3.org/2000/svg">
<g id="Payment Method/ShopPay">
<rect x="0.166667" y="0.502604" width="39.6667" height="26.3333" fill="white"/>
<path id="Vector" d="M22.5941 11.4121C22.5941 13.1267 21.392 14.3507 19.7121 14.3507H18.1295C18.112 14.3507 18.0947 14.3542 18.0785 14.3609C18.0624 14.3676 18.0478 14.3774 18.0354 14.3898C18.0231 14.4022 18.0134 14.4169 18.0067 14.4331C18.0001 14.4492 17.9967 14.4666 17.9968 14.484V16.7376C17.9968 16.7728 17.9829 16.8066 17.958 16.8316C17.9332 16.8566 17.8994 16.8707 17.8642 16.8709H16.7567C16.7304 16.8708 16.7047 16.8629 16.6828 16.8482C16.6609 16.8335 16.6439 16.8128 16.6337 16.7885C16.627 16.7726 16.6235 16.7555 16.6234 16.7382V8.60607C16.6233 8.5886 16.6267 8.57128 16.6333 8.55511C16.64 8.53895 16.6497 8.52425 16.662 8.51186C16.6744 8.49948 16.689 8.48965 16.7052 8.48294C16.7213 8.47624 16.7386 8.47279 16.7561 8.47279H19.7192C21.392 8.47086 22.5941 9.69487 22.5941 11.4121ZM21.213 11.4121C21.213 10.4263 20.5408 9.70581 19.629 9.70581H18.1295C18.112 9.70581 18.0947 9.70926 18.0785 9.71597C18.0624 9.72268 18.0478 9.7325 18.0354 9.74489C18.0231 9.75727 18.0134 9.77197 18.0067 9.78814C18.0001 9.8043 17.9967 9.82162 17.9968 9.83909V12.9774C17.9968 13.0125 18.0108 13.0463 18.0357 13.0711C18.0605 13.096 18.0943 13.11 18.1295 13.11H19.629C20.5408 13.1164 21.213 12.3953 21.213 11.4121ZM22.9225 15.3108C22.911 15.0478 22.9654 14.7861 23.0808 14.5495C23.1961 14.3129 23.3688 14.1089 23.5831 13.956C24.0151 13.6309 24.6906 13.4628 25.6821 13.4281L26.7381 13.3907V13.0791C26.7381 12.4545 26.3196 12.1905 25.6474 12.1905C24.9752 12.1905 24.5489 12.4288 24.451 12.8183C24.4431 12.8457 24.4262 12.8697 24.4031 12.8865C24.3801 12.9032 24.3521 12.9119 24.3236 12.911H23.2805C23.2613 12.9116 23.2422 12.9078 23.2246 12.9002C23.207 12.8925 23.1913 12.881 23.1786 12.8665C23.1659 12.8521 23.1566 12.835 23.1513 12.8166C23.146 12.7981 23.1448 12.7787 23.1478 12.7597C23.3024 11.8364 24.0705 11.1346 25.695 11.1346C27.4232 11.1346 28.0471 11.9394 28.0471 13.4757V16.7376C28.0468 16.7732 28.0323 16.8072 28.007 16.8321C27.9817 16.8571 27.9475 16.871 27.9119 16.8709H26.8604C26.8253 16.8708 26.7915 16.8569 26.7664 16.8322C26.7541 16.8199 26.7444 16.8052 26.7377 16.7891C26.7311 16.773 26.7277 16.7557 26.7278 16.7382V16.4942C26.7282 16.474 26.7224 16.4542 26.7113 16.4374C26.7002 16.4206 26.6843 16.4075 26.6656 16.3999C26.6469 16.3923 26.6264 16.3905 26.6067 16.3948C26.587 16.3991 26.569 16.4093 26.5552 16.424C26.2397 16.7672 25.7304 17.0151 24.9146 17.0151C23.7144 17.0151 22.9225 16.3905 22.9225 15.3108ZM26.7381 14.6038V14.3507L25.3705 14.4229C24.65 14.4596 24.2308 14.759 24.2308 15.2631C24.2308 15.719 24.6152 15.9714 25.2868 15.9714C26.1992 15.9714 26.7381 15.4788 26.7381 14.6038ZM29.1031 19.3356V18.3904C29.1033 18.3706 29.1078 18.3511 29.1164 18.3332C29.125 18.3153 29.1374 18.2996 29.1528 18.2871C29.1681 18.2745 29.1861 18.2655 29.2053 18.2607C29.2245 18.2558 29.2446 18.2553 29.264 18.2591C29.425 18.2893 29.5892 18.3048 29.7534 18.3054C30.0356 18.3192 30.3144 18.2378 30.5449 18.0744C30.7755 17.9109 30.9445 17.6749 31.025 17.404L31.0933 17.1864C31.1032 17.1571 31.1032 17.1255 31.0933 17.0962L28.9022 11.4687C28.8942 11.4483 28.8914 11.4263 28.8939 11.4046C28.8963 11.3828 28.904 11.362 28.9163 11.3439C28.9286 11.3258 28.9451 11.3109 28.9644 11.3006C28.9837 11.2903 29.0052 11.2848 29.0271 11.2846H30.0895C30.1166 11.2849 30.143 11.2933 30.1653 11.3088C30.1876 11.3243 30.2047 11.3462 30.2144 11.3715L31.7024 15.3404C31.7117 15.3667 31.729 15.3896 31.7518 15.4057C31.7746 15.4219 31.8019 15.4305 31.8299 15.4305C31.8578 15.4305 31.8851 15.4219 31.9079 15.4057C31.9308 15.3896 31.948 15.3667 31.9574 15.3404L33.2496 11.3825C33.2586 11.3554 33.2759 11.3319 33.299 11.3152C33.3221 11.2986 33.3499 11.2897 33.3784 11.2897H34.4775C34.4995 11.2899 34.5212 11.2953 34.5406 11.3057C34.5601 11.316 34.5767 11.3308 34.5892 11.349C34.6017 11.3672 34.6096 11.3881 34.6122 11.4099C34.6148 11.4318 34.6121 11.4539 34.6043 11.4745L32.2606 17.724C31.7211 19.1766 30.7958 19.5481 29.7772 19.5481C29.584 19.5533 29.3909 19.5301 29.2041 19.4792C29.1731 19.471 29.1459 19.4521 29.1274 19.4258C29.109 19.3996 29.1003 19.3676 29.1031 19.3356ZM9.50666 8.00404C8.11078 7.9941 6.76417 8.51947 5.74384 9.47208C5.7002 9.51205 5.673 9.56681 5.66753 9.62573C5.66205 9.68464 5.6787 9.74349 5.71422 9.7908L6.34586 10.6536C6.36634 10.6823 6.39286 10.7062 6.42356 10.7236C6.45427 10.741 6.4884 10.7514 6.52357 10.7542C6.55874 10.7569 6.59409 10.7519 6.62713 10.7396C6.66017 10.7272 6.69009 10.7078 6.7148 10.6826C7.08169 10.3158 7.51801 10.0258 7.99825 9.82956C8.4785 9.63333 8.99304 9.53478 9.51181 9.53969C11.6778 9.53969 12.8091 11.17 12.8091 12.7797C12.8091 14.5297 11.6205 15.7608 9.9123 15.7853C8.59235 15.7853 7.59756 14.9103 7.59756 13.7545C7.59894 13.4625 7.66508 13.1745 7.79123 12.9112C7.91739 12.6478 8.1004 12.4158 8.32707 12.2317C8.37499 12.1917 8.40528 12.1345 8.41142 12.0723C8.41757 12.0102 8.39907 11.9481 8.35991 11.8995L7.69607 11.0612C7.676 11.0358 7.65105 11.0147 7.62269 10.9992C7.59434 10.9836 7.56316 10.9739 7.53099 10.9706C7.49882 10.9673 7.46631 10.9705 7.43539 10.98C7.40447 10.9894 7.37576 11.005 7.35095 11.0258C6.94326 11.3542 6.61426 11.7698 6.38809 12.242C6.16192 12.7141 6.04431 13.231 6.04388 13.7545C6.04388 15.7441 7.73471 17.3049 9.90071 17.3177H9.92968C12.5013 17.2842 14.3608 15.3797 14.3608 12.7765C14.3608 10.4649 12.6584 8.00404 9.5073 8.00404H9.50666Z" fill="#5A31F4"/>
<rect x="0.166667" y="0.502604" width="39.6667" height="26.3333" stroke="#CCCCCC" stroke-width="0.333333"/>
</g>
</svg>
