<svg width="40" height="28" viewBox="0 0 40 28" fill="none" xmlns="http://www.w3.org/2000/svg">
<g id="Payment Method/Visa">
<rect x="0.166667" y="0.834635" width="39.6667" height="26.3333" fill="white"/>
<g id="Vector">
<path d="M27.0825 9.41126C26.5899 9.2158 25.8085 9 24.8423 9C22.3757 9 20.6387 10.3153 20.6281 12.1958C20.6076 13.5832 21.8717 14.3538 22.8171 14.8164C23.7835 15.2892 24.112 15.5977 24.112 16.0191C24.1021 16.6662 23.3311 16.9645 22.612 16.9645C21.6148 16.9645 21.0805 16.8107 20.2685 16.4507L19.9396 16.2963L19.59 18.4647C20.1759 18.7316 21.2551 18.9685 22.3757 18.9788C24.9965 18.9788 26.7027 17.6839 26.7229 15.6799C26.7329 14.5803 26.0654 13.7377 24.6263 13.0492C23.7527 12.6072 23.2177 12.3092 23.2177 11.8569C23.228 11.4458 23.6702 11.0247 24.6564 11.0247C25.4684 11.0041 26.065 11.1993 26.5169 11.3946L26.7428 11.4972L27.0825 9.41126Z" fill="#3362AB"/>
<path d="M18.0281 18.8349H15.5304L17.0926 9.1751H19.5902L18.0281 18.8349Z" fill="#3362AB"/>
<path fill-rule="evenodd" clip-rule="evenodd" d="M33.4853 9.1751H31.5533C30.9575 9.1751 30.5049 9.34966 30.2478 9.97658L26.5378 18.8347H29.1586C29.1586 18.8347 29.5901 17.6425 29.6828 17.3857H32.8896C32.9614 17.7249 33.1877 18.8347 33.1877 18.8347H35.5003L33.4853 9.1751ZM30.4022 15.4128C30.6079 14.8578 31.3994 12.71 31.3994 12.71C31.3952 12.7183 31.4274 12.6291 31.4754 12.496L31.476 12.4944L31.4764 12.4933C31.5481 12.2946 31.6545 11.9995 31.728 11.7852L31.9026 12.6176C31.9026 12.6176 32.3755 14.9298 32.4783 15.4128H30.4022Z" fill="#3362AB"/>
<path d="M13.4442 9.1751L10.9981 15.7622L10.7308 14.4262L10.7305 14.4254L9.85719 9.98709C9.71337 9.37014 9.27138 9.19545 8.72668 9.1751H4.7081L4.66699 9.37028C5.64711 9.62091 6.52373 9.98208 7.29184 10.4311L9.51805 18.8246H12.1593L16.0853 9.1751H13.4442Z" fill="#3362AB"/>
</g>
<rect x="0.166667" y="0.834635" width="39.6667" height="26.3333" stroke="#CCCCCC" stroke-width="0.333333"/>
</g>
</svg>
