<svg width="25" height="25" viewBox="0 0 25 25" fill="none" xmlns="http://www.w3.org/2000/svg">
<g id="_Instagram">
<path id="Vector" d="M6.83577 24.5167C5.40848 24.4518 4.63314 24.2142 4.11743 24.0131C3.4341 23.747 2.94693 23.4303 2.43407 22.9182C1.92122 22.4061 1.60381 21.9189 1.33918 21.2356C1.13803 20.7199 0.900504 19.9445 0.835595 18.5172C0.764266 16.9744 0.75 16.5115 0.75 12.6026C0.75 8.69381 0.765692 8.2316 0.834881 6.68734C0.89979 5.26005 1.13874 4.48613 1.33846 3.969C1.60452 3.28567 1.92193 2.79849 2.43336 2.28492C2.9455 1.77278 3.43268 1.45465 4.11672 1.19003C4.63243 0.988878 5.40777 0.751353 6.83506 0.686444C8.37861 0.615828 8.84225 0.601562 12.7496 0.601562C16.6585 0.601562 17.1207 0.617255 18.6649 0.686444C20.0922 0.751353 20.8661 0.990304 21.3833 1.19003C22.0666 1.45465 22.5538 1.77278 23.0666 2.28492C23.5795 2.79706 23.8955 3.28495 24.1615 3.96828C24.3627 4.48399 24.6002 5.25933 24.6651 6.68662C24.7357 8.23089 24.75 8.6931 24.75 12.6019C24.75 16.5093 24.7357 16.9729 24.6651 18.5172C24.6002 19.9445 24.3613 20.7199 24.1615 21.2356C23.8955 21.9189 23.5788 22.4061 23.0666 22.9182C22.5545 23.4303 22.0666 23.747 21.3833 24.0131C20.8676 24.2142 20.0922 24.4518 18.6649 24.5167C17.1221 24.5873 16.6585 24.6016 12.7496 24.6016C8.84225 24.6016 8.37862 24.588 6.83577 24.5167" fill="url(#paint0_radial_255_16975)"/>
<path id="Vector_2" d="M10.0271 12.5166C10.0271 11.0595 11.2079 9.87802 12.665 9.87802C14.1221 9.87802 15.3035 11.0595 15.3035 12.5166C15.3035 13.9736 14.1221 15.1551 12.665 15.1551C11.2079 15.1551 10.0271 13.9736 10.0271 12.5166M8.60074 12.5166C8.60074 14.7613 10.4203 16.5808 12.665 16.5808C14.9097 16.5808 16.7293 14.7613 16.7293 12.5166C16.7293 10.2719 14.9097 8.45231 12.665 8.45231C10.4203 8.45231 8.60081 10.2717 8.60081 12.5166M15.9404 8.29116C15.9403 8.47901 15.996 8.66266 16.1003 8.8189C16.2046 8.97514 16.3529 9.09693 16.5264 9.16889C16.6999 9.24085 16.8909 9.25973 17.0751 9.22316C17.2594 9.18658 17.4287 9.09619 17.5616 8.96341C17.6944 8.83064 17.785 8.66143 17.8217 8.47721C17.8584 8.29298 17.8397 8.102 17.7679 7.92841C17.696 7.75483 17.5744 7.60644 17.4182 7.50202C17.2621 7.39759 17.0785 7.34181 16.8906 7.34174H16.8902C16.6384 7.34185 16.397 7.44191 16.2189 7.61992C16.0408 7.79794 15.9406 8.03936 15.9404 8.29116M9.46734 18.9592C8.69566 18.9241 8.27623 18.7956 7.99749 18.687C7.62796 18.5431 7.36429 18.3718 7.08708 18.0949C6.80986 17.8181 6.63827 17.5547 6.49504 17.1851C6.38638 16.9065 6.25784 16.487 6.22276 15.7153C6.18439 14.881 6.17673 14.6304 6.17673 12.5167C6.17673 10.403 6.18502 10.1531 6.22276 9.31808C6.2579 8.5464 6.38739 8.12766 6.49504 7.84823C6.6389 7.4787 6.81024 7.21503 7.08708 6.93782C7.36391 6.6606 7.62732 6.48901 7.99749 6.34578C8.2761 6.23712 8.69566 6.10858 9.46734 6.0735C10.3016 6.03513 10.5523 6.02747 12.665 6.02747C14.7777 6.02747 15.0286 6.03563 15.8636 6.07363C16.6353 6.10877 17.054 6.23826 17.3335 6.3459C17.703 6.48913 17.9667 6.66111 18.2439 6.93794C18.5211 7.21478 18.6921 7.47882 18.8359 7.84836C18.9446 8.12697 19.0731 8.54653 19.1082 9.31821C19.1466 10.1532 19.1542 10.4031 19.1542 12.5168C19.1542 14.6305 19.1466 14.8804 19.1082 15.7154C19.073 16.4871 18.9439 16.9065 18.8359 17.1853C18.6921 17.5548 18.5207 17.8185 18.2439 18.0951C17.967 18.3716 17.703 18.5432 17.3335 18.6871C17.0548 18.7958 16.6353 18.9243 15.8636 18.9594C15.0293 18.9977 14.7787 19.0054 12.665 19.0054C10.5513 19.0054 10.3014 18.9977 9.46734 18.9594M9.4018 4.6495C8.55921 4.68787 7.98344 4.82147 7.48061 5.01713C6.96018 5.21919 6.51903 5.49026 6.07852 5.93008C5.638 6.3699 5.36762 6.81111 5.16557 7.33217C4.96991 7.83532 4.83631 8.41077 4.79793 9.25337C4.75893 10.0973 4.75 10.3671 4.75 12.5166C4.75 14.666 4.75893 14.9358 4.79793 15.7798C4.83631 16.6224 4.96991 17.1978 5.16557 17.701C5.36762 18.2214 5.63806 18.6634 6.07852 19.103C6.51897 19.5427 6.95955 19.8134 7.48061 20.016C7.98439 20.2117 8.55921 20.3453 9.4018 20.3836C10.2462 20.422 10.5155 20.4316 12.665 20.4316C14.8145 20.4316 15.0843 20.4226 15.9282 20.3836C16.7709 20.3453 17.3462 20.2117 17.8494 20.016C18.3698 19.8134 18.811 19.5429 19.2515 19.103C19.692 18.6632 19.9618 18.2214 20.1644 17.701C20.3601 17.1978 20.4943 16.6224 20.5321 15.7798C20.5704 14.9352 20.5794 14.666 20.5794 12.5166C20.5794 10.3671 20.5704 10.0973 20.5321 9.25337C20.4937 8.4107 20.3601 7.835 20.1644 7.33217C19.9618 6.81175 19.6913 6.3706 19.2515 5.93008C18.8117 5.48956 18.3698 5.21919 17.85 5.01713C17.3462 4.82147 16.7708 4.68723 15.9288 4.6495C15.0848 4.61093 14.8151 4.60156 12.666 4.60156C10.5168 4.60156 10.2465 4.61049 9.40212 4.6495" fill="white"/>
</g>
<defs>
<radialGradient id="paint0_radial_255_16975" cx="0" cy="0" r="1" gradientUnits="userSpaceOnUse" gradientTransform="translate(2.30326 24.0758) scale(30.4711)">
<stop offset="0.09" stop-color="#FA8F21"/>
<stop offset="0.78" stop-color="#D82D7E"/>
</radialGradient>
</defs>
</svg>
