<svg width="25" height="25" viewBox="0 0 25 25" fill="none" xmlns="http://www.w3.org/2000/svg">
<g id="_Linkedin">
<rect id="Rectangle 12" x="0.25" y="0.601562" width="24" height="24" rx="12" fill="#0A66C2"/>
<g id="LinkedIn logo">
<g clip-path="url(#clip0_255_16979)">
<path id="Vector" d="M5.25 7.46812C5.25 7.01766 5.40766 6.64604 5.72297 6.35325C6.03828 6.06045 6.4482 5.91406 6.9527 5.91406C7.4482 5.91406 7.84909 6.0582 8.15541 6.34649C8.47072 6.64379 8.62838 7.03117 8.62838 7.50866C8.62838 7.94109 8.47523 8.30144 8.16892 8.58974C7.85361 8.88704 7.43919 9.03568 6.92568 9.03568H6.91216C6.41666 9.03568 6.01577 8.88704 5.70946 8.58974C5.40315 8.29244 5.25 7.91856 5.25 7.46812ZM5.42568 19.2924V10.2654H8.42568V19.2924H5.42568ZM10.0878 19.2924H13.0878V14.2519C13.0878 13.9366 13.1239 13.6933 13.1959 13.5222C13.3221 13.2159 13.5135 12.9568 13.7703 12.7451C14.027 12.5334 14.3491 12.4276 14.7365 12.4276C15.7455 12.4276 16.25 13.1078 16.25 14.4681V19.2924H19.25V14.1168C19.25 12.7834 18.9347 11.7722 18.3041 11.083C17.6734 10.3938 16.8401 10.0492 15.8041 10.0492C14.6419 10.0492 13.7365 10.5492 13.0878 11.5492V11.5762H13.0743L13.0878 11.5492V10.2654H10.0878C10.1059 10.5537 10.1149 11.4501 10.1149 12.9546C10.1149 14.4591 10.1059 16.5717 10.0878 19.2924Z" fill="white"/>
</g>
</g>
</g>
<defs>
<clipPath id="clip0_255_16979">
<rect x="5.25" y="5.60156" width="14" height="14" fill="white"/>
</clipPath>
</defs>
</svg>
