<svg width="25" height="25" viewBox="0 0 25 25" fill="none" xmlns="http://www.w3.org/2000/svg">
<g id="_Spotify">
<g clip-path="url(#clip0_255_16980)">
<path id="Vector" d="M12.5 0.601562C5.87273 0.601562 0.5 5.97374 0.5 12.6016C0.5 19.2294 5.87273 24.6016 12.5 24.6016C19.1273 24.6016 24.5 19.2294 24.5 12.6016C24.5 5.97374 19.1273 0.601562 12.5 0.601562ZM18.3545 17.9003C18.1618 18.2416 17.8073 18.4336 17.4418 18.4336C17.2709 18.4336 17.0945 18.3908 16.9327 18.3008C15.4345 17.4608 13.8018 16.9463 12.0764 16.7716C10.3473 16.5983 8.64 16.7737 7 17.2974C6.45273 17.4721 5.86364 17.1697 5.6891 16.6216C5.51273 16.0725 5.81637 15.4854 6.36546 15.3097C8.27818 14.6987 10.2727 14.4908 12.2873 14.6956C14.2982 14.9003 16.2036 15.5003 17.9527 16.4807C18.4564 16.761 18.6364 17.397 18.3545 17.9003ZM19.7909 14.2554C19.6055 14.6123 19.2418 14.817 18.8655 14.817C18.7018 14.817 18.5382 14.7796 18.3836 14.6987C16.5418 13.7394 14.5527 13.1454 12.4673 12.9337C10.3654 12.7187 8.28364 12.9061 6.27637 13.485C5.72182 13.6425 5.14364 13.3254 4.98546 12.771C4.82546 12.2176 5.14545 11.6394 5.69818 11.4796C7.96363 10.8263 10.3127 10.617 12.6782 10.857C15.0273 11.0963 17.2709 11.7654 19.3491 12.8483C19.8582 13.1147 20.0582 13.7445 19.7909 14.2554ZM20.3109 11.223C20.1545 11.223 19.9964 11.1877 19.8455 11.1136C17.66 10.0237 15.3091 9.34502 12.8564 9.09611C10.4 8.84484 7.95636 9.03902 5.59091 9.67065C5.03455 9.81829 4.46363 9.48829 4.31454 8.93102C4.16545 8.37447 4.49637 7.80229 5.05455 7.65374C7.66365 6.95702 10.3618 6.74484 13.0691 7.02011C15.7727 7.29374 18.3655 8.04302 20.7764 9.24538C21.2927 9.50247 21.5018 10.1296 21.2455 10.6448C21.0636 11.0116 20.6945 11.223 20.3109 11.223Z" fill="#1ED760"/>
</g>
</g>
<defs>
<clipPath id="clip0_255_16980">
<rect x="0.5" y="0.601562" width="24" height="24" rx="4.8" fill="white"/>
</clipPath>
</defs>
</svg>
