<svg width="24" height="25" viewBox="0 0 24 25" fill="none" xmlns="http://www.w3.org/2000/svg">
<g id="_TikTok">
<rect y="0.601562" width="24" height="24" rx="12" fill="#191818"/>
<g id="Group">
<path id="Vector" d="M14.6673 10.9458C15.6191 11.6286 16.785 12.0303 18.0442 12.0303V9.59848C17.8059 9.59853 17.5682 9.57359 17.3351 9.52402V11.4382C16.0759 11.4382 14.9102 11.0365 13.9582 10.3538V15.3164C13.9582 17.7989 11.9528 19.8113 9.47925 19.8113C8.5563 19.8113 7.69845 19.5313 6.98584 19.051C7.79917 19.8856 8.93342 20.4033 10.1883 20.4033C12.662 20.4033 14.6674 18.391 14.6674 15.9083V10.9458H14.6673V10.9458ZM15.5422 8.49242C15.0558 7.95914 14.7364 7.26999 14.6673 6.50809V6.19531H13.9953C14.1645 7.16368 14.7415 7.99099 15.5422 8.49242ZM8.55038 17.146C8.27863 16.7884 8.13178 16.351 8.13243 15.9012C8.13243 14.7658 9.04967 13.8452 10.1813 13.8452C10.3922 13.8451 10.6018 13.8775 10.8028 13.9415V11.4554C10.5679 11.4231 10.3309 11.4093 10.0939 11.4144V13.3495C9.89279 13.2855 9.68306 13.253 9.47212 13.2532C8.3405 13.2532 7.42331 14.1737 7.42331 15.3093C7.42331 16.1122 7.88178 16.8074 8.55038 17.146Z" fill="#FF004F"/>
<path id="Vector_2" d="M13.9584 10.3537C14.9103 11.0364 16.0761 11.4381 17.3353 11.4381V9.52397C16.6324 9.37372 16.0102 9.00512 15.5424 8.49242C14.7416 7.99094 14.1646 7.16363 13.9955 6.19531H12.2302V15.9082C12.2262 17.0405 11.3106 17.9574 10.1814 17.9574C9.51595 17.9574 8.9248 17.6391 8.55041 17.146C7.88186 16.8074 7.42339 16.1122 7.42339 15.3093C7.42339 14.1738 8.34058 13.2532 9.4722 13.2532C9.68901 13.2532 9.89798 13.2871 10.094 13.3495V11.4144C7.66388 11.4648 5.70947 13.4575 5.70947 15.9083C5.70947 17.1317 6.19617 18.2407 6.98607 19.0511C7.69868 19.5313 8.55653 19.8113 9.47948 19.8113C11.9531 19.8113 13.9584 17.7989 13.9584 15.3164V10.3537H13.9584Z" fill="white"/>
<path id="Vector_3" d="M17.3349 9.52221V9.00463C16.7011 9.0056 16.0798 8.82746 15.542 8.49061C16.018 9.01362 16.6449 9.37425 17.3349 9.52221ZM13.9951 6.19355C13.979 6.10101 13.9666 6.00785 13.958 5.91434V5.60156H11.5206V15.3146C11.5168 16.4467 10.6011 17.3636 9.47184 17.3636C9.1403 17.3636 8.82727 17.2846 8.55006 17.1443C8.92445 17.6373 9.5156 17.9556 10.181 17.9556C11.3101 17.9556 12.2259 17.0388 12.2299 15.9065V6.19355H13.9951ZM10.0938 11.4127V10.8617C9.89009 10.8337 9.68476 10.8197 9.47918 10.8198C7.00535 10.8198 5 12.8322 5 15.3146C5 16.8709 5.78814 18.2424 6.98577 19.0492C6.19586 18.2389 5.70917 17.1298 5.70917 15.9065C5.70917 13.4558 7.66353 11.4631 10.0938 11.4127Z" fill="#00F2EA"/>
</g>
</g>
</svg>
